<?xml version="1.0" encoding="utf-8"?>
<!-- Generator: Adobe Illustrator 24.0.0, SVG Export Plug-In . SVG Version: 6.00 Build 0)  -->
<svg version="1.1" id="Layer_1" xmlns="http://www.w3.org/2000/svg" xmlns:xlink="http://www.w3.org/1999/xlink" x="0px" y="0px"
	 viewBox="0 0 248.88 111" style="enable-background:new 0 0 248.88 111;" xml:space="preserve">
<style type="text/css">
	.st0{fill:#020202;}
	.st1{fill:#030303;}
</style>
<g>
	<g>
		<path d="M24.94,74.36c0.41-2,1.2-3.93,2.07-5.77c1.64-3.47,6.77-4.79,10.29-4.26c4.89,0.73,8.77,3.1,12.14,6.4
			c1.48,1.45,2.78,3.1,3.68,4.97c0.82,1.71,1.54,4.53,1.56,6.4c-0.72-0.08-1.51-0.18-2.22-0.4c-2.55-0.8-5.13-1.55-7.65-2.45
			c-2.21-0.79-2.75-2.62-4.45-3.98c-1.69-1.35-3.95-1.88-6.03-1.18c-0.86,0.29-2.13,1.64-1.76,2.64c0.17,0.47,0.68,0.7,1.14,0.89
			c3.83,1.58,7.81,2.78,11.57,4.54c3.9,1.81,7.88,3.73,10.42,7.41c1.16,1.68,2.09,3.6,1.48,5.89c-1.85,6.87-13.95,2.36-18.28,1.49
			c-2.92-0.59-5.81-1.32-8.73-1.94c-1.53-0.33-3.08-1.13-4.15-2.33c-1.3-1.46-1.32-3.05-1.32-4.89c1.28-0.1,2.56-0.22,3.84-0.29
			c1.25-0.07,2.44-0.07,3.41,1.02c0.45,0.51,1.22,0.91,1.9,1.03c1.67,0.28,3.3,0.72,4.98,0.92c0.89,0.11,1.98,0.3,2.87,0.06
			c1.67-0.44,0.31-1.68-0.46-2.18c-0.59-0.38-1.25-0.65-1.92-0.87c-1.88-0.62-3.76-1.26-5.69-1.76c-3.9-1.02-7.95-1.86-8.81-6.46
			C24.52,77.6,24.61,75.96,24.94,74.36z"/>
		<path d="M76.1,102.33c-2.13-0.14-4.26-0.67-6.17-1.42c-6.12-2.39-11.23-8.45-11.25-14.86c-0.01-2.67,1.29-4.86,2.83-6.91
			c3.27-4.35,7.48-7.43,12.86-8.55c2.25-0.47,4.7-0.69,6.94-0.32c4.08,0.68,6.2,3.43,6.75,7.67c0.48,3.71,0.72,7.5,0.59,11.24
			c-0.13,3.66-0.75,7.32-3.54,10.15C82.67,101.78,79.39,102.54,76.1,102.33z M79.95,88.79c-0.12-2.33-0.84-4.75-1.48-6.6
			c-1.22-3.55-3.78-3.92-6.64-1.68c-4.52,3.55-3.66,11.07,0.58,14.2c1.5,1.11,3.49,1.62,5.1,0.43
			C79.54,93.64,80.08,91.26,79.95,88.79z"/>
		<path d="M111.75,63.86c0.15,1.25-0.76,2.58-1.15,3.73c-0.47,1.36-0.94,2.72-1.4,4.09c-0.88,2.56-1.74,5.13-2.57,7.71
			c-0.59,1.84-1.08,3.79-1.16,5.71c-0.09,2.04,0.67,3.41,4.09,3.81c3.31,0.4,6.45-0.35,8.98-2.83c1.64-1.6,1.82-3.75,2.3-5.76
			c0.78-3.32,1.45-6.67,2.03-10.03c0.39-2.27,0.55-4.58,0.84-7.13c0-0.04,5.38,0.37,5.87,0.41c1.45,0.11,4.12-0.3,4.62,1.45
			c0.72,2.53,0.59,5.73,0.45,8.33c-0.25,4.52-0.5,9.06-1.24,13.51c-0.91,5.43-4.68,8.57-9.66,10.52c-5.32,2.08-10.83,3.14-16.5,2.62
			c-5.72-0.52-10.61-2.89-13.73-7.96c-0.66-1.08-1.06-2.46-1.15-3.72c-0.25-3.59-0.09-7.22,0.64-10.75c0.55-2.65,1.44-5.22,2.5-7.7
			c0.8-1.89,1.5-4.04,3.73-4.54c0.98-0.22,12.43-2.21,12.53-1.49C111.75,63.85,111.75,63.85,111.75,63.86z"/>
		<path d="M138.4,64.37c3.6,0.57,6.8,1.03,9.99,1.58c3.18,0.55,6.4,1.02,9.52,1.82c2.93,0.76,5.84,1.68,7.67,4.49
			c1.43,2.2,1.49,4.61,1.2,6.98c-0.48,3.96-2.23,7.38-5.25,10.08c-0.57,0.51-1.47,1.01-1.57,1.63c-0.2,1.19,0,2.47,0.13,3.7
			c0.25,2.43,0.57,4.86,0.88,7.48c-2.72,0-5.21,0.03-7.69-0.04c-0.3-0.01-0.77-0.57-0.83-0.93c-0.46-2.85-0.95-5.7-1.18-8.58
			c-0.1-1.25-0.92-1.37-1.64-1.42c-0.33-0.03-0.93,0.77-1.08,1.28c-0.75,2.67-1.51,5.35-2.04,8.07c-0.26,1.34-0.86,1.75-2.1,1.64
			c-2.8-0.25-5.61-0.46-8.58-0.7C139.04,89.31,139.96,77.03,138.4,64.37z M149.71,74.29c0,2.8-0.02,5.39,0.02,7.98
			c0.01,0.33,0.25,0.89,0.48,0.96c1.35,0.37,2.74,0.83,4.12,0.85c1.41,0.02,2.97-1.88,3.18-3.38c0.34-2.45-0.3-4.2-2.09-4.85
			C153.61,75.19,151.69,74.82,149.71,74.29z"/>
		<path d="M224.22,97.44c-8.7-0.44-17.52-0.95-26.51,1.08c0.15-1.37,0.24-2.37,0.37-3.37c0.69-5.49,1.41-10.98,2.08-16.48
			c0.44-3.6,0.82-7.22,1.22-10.82c0.1-0.88,0.2-1.75,0.31-2.63c0.14-1.24,1.08-1.6,2.08-1.66c3.96-0.25,7.92-0.44,11.89-0.61
			c1.65-0.07,3.31-0.1,4.95,0.04c0.52,0.04,1.39,0.65,1.43,1.06c0.24,2.35,0.28,4.72,0.4,7.25c-3.69,0.11-7.26,0.29-10.82,0.29
			c-1.44,0-1.99,0.4-1.85,1.85c0.11,1.13,0.02,2.27,0.02,3.69c1.7-0.14,3.25-0.3,4.81-0.38c2.23-0.12,4.46-0.24,6.68-0.23
			c0.36,0,0.99,0.65,1.04,1.05c0.23,2.05,0.3,4.11,0.44,6.44c-3.8,0.07-7.42,0.18-11.03,0.17c-1.42,0-2.16,0.35-1.96,1.92
			c0.11,0.88,0.02,1.78,0.02,2.89c0.95,0,1.83,0,2.71,0c3.3,0,6.61,0.04,9.91-0.02c1.37-0.02,1.87,0.53,1.83,1.86
			C224.17,92.94,224.22,95.06,224.22,97.44z"/>
		<path d="M187.56,82.1c0-0.87,0-1.66,0-2.44c-0.01-2.56-1.82-3.96-4.24-3.01c-1.32,0.52-2.65,1.37-3.61,2.41
			c-3.1,3.33-4.65,7.39-5.09,11.9c-0.3,3.09,1.67,4.5,4.86,3.23c2.22-0.89,4.12-2.31,5.2-4.4c0.81-1.56,1.82-2.14,3.48-2.36
			c1.25-0.16,2.49-0.39,3.72-0.65c1.2-0.25,2.58-0.8,3.79-0.8c-0.25,1.94-1.28,4.12-2.38,5.72c-1.25,1.82-2.85,3.37-4.52,4.8
			c-2.94,2.52-6.35,4.39-10.22,5.19c-3.59,0.74-7.14,0.92-10.37-1.29c-1.65-1.13-2.46-2.8-2.54-4.71c-0.2-4.84,1.12-9.38,2.95-13.81
			c1.56-3.78,3.75-7.13,6.75-9.89c4.15-3.82,8.99-5.93,14.77-5.46c2.68,0.22,5.8,2.89,6.37,5.96c0.3,1.61,0.73,3.38,0.55,5.07
			c-0.21,1.95-0.94,2.59-2.75,3.03C192.06,81.13,189.81,81.6,187.56,82.1z"/>
	</g>
	<g>
		<path d="M234.19,28.17c-0.47,2.19-1.31,4.28-2.47,6.1c-2.4,3.75-5.87,6.45-9.63,8.78c-3.15,1.96-6.55,3.14-10.28,3.1
			c-5.97-0.07-8.35-3.12-9.18-8.01c-1.12-6.62-0.47-13.19,1.76-19.54c1.64-4.65,5.21-8.16,10.01-9.47c3.5-0.96,8.1-0.49,11.39,1.03
			c2.08,0.96,3.96,2.38,5.44,4.13C234.41,18.08,235.21,23.35,234.19,28.17z M211.19,29.76c0.21,1.21,0.37,2.73,0.76,4.18
			c0.57,2.17,3.22,2.79,5.56,1.35c4.57-2.81,7.59-9.64,6.37-14.83c-0.59-2.49-2.13-4.22-4.83-4.39c-2.01-0.13-3.67,0.78-4.82,2.47
			C212,21.85,211.59,25.64,211.19,29.76z"/>
		<path d="M162.93,24.62c-2.88,0.17-5.77,0.33-8.65,0.56c-2.32,0.18-5.39,1.2-6.92-1.14c-1.29-1.96-3.64-1.86-5.58-1.39
			c-4.51,1.07-7.06,4.31-7.4,8.07c-0.49,5.47,2.71,9.54,6.78,10.76c2.83,0.85,5.49,0.61,7.81-1.12c0.87-0.65,1.28-1.94,1.8-2.99
			c0.04-0.09-0.62-0.76-0.94-0.76c-1.63,0.02-3.27,0.15-4.89,0.3c-1.08,0.1-1.47-0.34-1.59-1.39c-0.12-1.16-0.47-2.29-0.74-3.43
			c-0.25-1.1-0.43-2.01,1.22-2.18c2.49-0.25,4.94-0.82,7.42-1.07c3.73-0.38,7.48-0.62,11.23-0.86c0.32-0.02,0.95,0.36,0.97,0.6
			c0.33,4.33,1.22,8.69-0.32,12.98c-1.68,4.67-5.12,7.58-9.8,8.72c-5.21,1.27-10.5,0.99-15.58-0.84c-3.2-1.15-6.3-2.59-8.68-5.12
			c-3.38-3.6-4.42-7.86-3.81-12.75c0.41-3.27,1.47-6.21,3.36-8.8c3.78-5.14,8.58-8.87,15.12-9.84c6.05-0.9,11.61,0.06,16.08,4.6
			C161.7,19.42,162.76,21.74,162.93,24.62z"/>
		<path d="M190.36,28.86c-0.13-1.45-0.36-2.91-0.38-4.36c-0.06-3.59,0-7.18-0.03-10.77c-0.01-0.88,0.15-1.34,1.21-1.42
			c2.25-0.19,4.48-0.57,6.72-0.85c0.87-0.11,1.4,0.1,1.42,1.18c0.05,4.02,0.13,8.04,0.29,12.06c0.18,4.52-0.89,8.88-1.61,13.28
			c-0.41,2.5-0.97,4.98-1.38,7.48c-0.16,1-0.66,1.34-1.6,1.32c-1.35-0.03-2.71,0.09-4.05-0.06c-0.54-0.06-1.3-0.55-1.5-1.03
			c-2.93-7.07-5.79-10.52-10.74-16.32c0.16,2.09,0.39,3.83,0.42,5.58c0.06,3.84,0.04,7.68-0.02,11.52
			c-0.01,0.39-0.48,1.07-0.81,1.12c-2.58,0.39-5.17,0.67-7.76,0.97c-0.18,0.02-0.38-0.04-0.65-0.07c-0.32-3.56-0.5-7.1-0.99-10.6
			c-0.72-5.21-1.07-10.44-0.84-15.68c0.13-2.89,0.54-5.77,0.91-8.64c0.04-0.33,0.61-0.83,0.93-0.83c1.88,0,3.77,0.28,5.64,0.16
			c1.54-0.1,2.42,0.64,3.24,1.68c3.41,4.37,6.81,8.74,10.21,13.12c0.33,0.42,0.64,0.86,0.95,1.29
			C190.08,28.94,190.22,28.9,190.36,28.86z"/>
		<path d="M14.33,46.73c-0.3-5.05,0.52-10.07,1.03-15.08c0.49-4.79,0.61-9.59,1.58-14.33c0.07-0.34,0.83-0.73,1.3-0.76
			c4.13-0.26,8.18,0.38,12.17,1.35c2.84,0.69,5.73,1.39,8.37,2.58c5.29,2.39,9.84,5.71,11,11.92c0.95,5.07,0.35,9.9-3.22,13.91
			c-1.6,1.79-3.79,2.68-6.26,2.86c-3.57,0.25-6.92-0.82-10.32-1.57c-2.62-0.57-5.29-0.88-7.97-0.98
			C21.35,46.61,14.34,46.82,14.33,46.73z M26.81,25.27c0,4.62-0.02,9.18,0.04,13.73c0,0.29,0.55,0.75,0.92,0.84
			c1.09,0.28,2.21,0.59,3.32,0.58c1.77-0.01,3.68,0.59,5.24-0.89c3.09-2.94,2.07-8.79-1.13-11.34
			C32.71,26.21,29.75,25.67,26.81,25.27z"/>
		<path d="M79.38,28.21c-4.22,0-8.22,0.04-12.22-0.02c-1.43-0.02-1.99,0.51-1.92,1.93c0.04,0.91-0.15,1.83-0.24,2.73
			c4.49,0,8.91,0,13.4,0c0,1.95,0,3.93,0,6.26c-4.39,0.2-8.83,0.39-13.55,0.6c-0.08,1.45-0.17,2.94-0.27,4.66
			c4.89-0.23,9.62-0.46,14.59-0.69c-0.29,2.07-0.54,3.9-0.8,5.72c-0.05,0.34-0.18,0.67-0.18,1c0,0.98-0.47,1.41-1.45,1.47
			c-2.62,0.16-5.23,0.41-7.84,0.59c-4.55,0.31-9.1,0.6-13.64,0.9c-0.4,0.03-0.79,0-1.41,0c0-0.89,0-1.71,0-2.53
			c0-2.2-0.06-4.39,0.01-6.59c0.17-5.3,0.36-10.6,0.61-15.9c0.1-2.01,0.31-4.02,0.64-6.01c0.08-0.49,0.79-1.21,1.26-1.25
			c4.24-0.39,8.49-0.73,12.74-0.93c3.01-0.14,6.03-0.02,9.04-0.03c0.76,0,1.26,0.14,1.25,1.05C79.37,23.46,79.38,25.74,79.38,28.21z
			"/>
		<path d="M83.11,42c3.17,0.4,6.29,0.78,9.4,1.21c0.34,0.05,0.66,0.4,0.94,0.66c2.07,1.99,6.06,2.75,8.7,1.57
			c0.48-0.22,0.95-0.74,1.12-1.22c0.07-0.21-0.59-0.88-1.02-1.01c-2.62-0.77-5.26-1.48-7.91-2.13c-3.82-0.94-7.29-2.41-9.54-5.85
			c-1.83-2.79-1.65-5.7-0.14-8.5c1.36-2.52,3.77-3.45,6.52-3.61c5.38-0.31,10.33,1.03,14.9,3.86c2.1,1.3,3.46,3.11,4.14,5.45
			c0.38,1.31,0.07,1.74-1.29,1.75c-1.25,0.01-2.51-0.04-3.75,0.01c-1.51,0.06-2.68-0.09-3.84-1.49c-1.52-1.83-3.96-2.08-6.3-1.77
			c-1,0.13-1.45,1.55-0.64,2.11c1.22,0.84,2.6,1.55,4.01,2c3.16,1.01,6.38,1.8,9.57,2.72c2.64,0.76,4.61,3.46,4.47,6.69
			c-0.15,3.33-1.73,5.05-4.58,6.13c-4.11,1.56-8.41,1.82-12.81,1.31c-2.36-0.27-4.64-0.61-6.86-1.5
			C84.69,49.01,82.33,46.04,83.11,42z"/>
		<path d="M116.39,51.07c-0.64-3.71-1.31-7.17-1.83-10.64c-0.57-3.82-1.05-7.67-1.49-11.51c-0.13-1.13-0.06-2.29,0-3.44
			c0.01-0.29,0.25-0.74,0.48-0.82c2.54-0.83,5.1-1.59,7.49-2.33c0.56,5,0.93,9.76,1.66,14.46c0.72,4.61,1.82,9.16,2.77,13.84
			C122.57,50.78,119.56,50.92,116.39,51.07z"/>
	</g>
</g>
</svg>
