<svg id="Laag_1" data-name="Laag 1" xmlns="http://www.w3.org/2000/svg" viewBox="0 0 1673.76 941.49"><defs><style>.cls-1{fill:#b83718;}.cls-2{fill:none;}.cls-3{fill:#f6c76b;}.cls-4{fill:#da7236;}.cls-5{fill:#e09f19;}</style></defs><title>logo</title><path class="cls-1" d="M371.64,680.48q0,74.92-34.83,106.8T230.34,819.15q-37.47,0-61.45-10.18t-38.12-28.92q-14.13-18.74-19.38-43.7a253.75,253.75,0,0,1-5.26-52.58V663.4h86.75v14.46q0,37.46,8.21,55.53t33.85,18.07q25.63,0,33.85-18.07T277,677.86V342.68h94.64Z"/><path class="cls-2" d="M517.27,581.9a155.16,155.16,0,0,0,45.56,110C590.77,720.4,629.65,738,671.56,738s81.4-17.62,110-46.17a156.06,156.06,0,0,0,44.9-108,229.23,229.23,0,0,1-96.86-59.32,243.41,243.41,0,0,1-58.36-98.74A152.46,152.46,0,0,0,562.83,472,155.14,155.14,0,0,0,517.27,581.9Z"/><path class="cls-1" d="M826.41,583.86a156.06,156.06,0,0,1-44.9,108C753,720.4,713.48,738,671.56,738s-80.79-17.62-108.73-46.17a155.44,155.44,0,0,1,0-219.89A152.46,152.46,0,0,1,671.19,425.8a233.17,233.17,0,0,1-10-67.53q0-6.07.31-12.07a233.21,233.21,0,0,0-155.6,69.43c-41.4,42.72-68.34,101.21-68.34,166.27s26.94,123.56,68.34,166.28a232.49,232.49,0,0,0,331.89,0c38.83-40.07,64.94-94,68-154.22-3.54.15-7.1.25-10.68.25A232.56,232.56,0,0,1,826.41,583.86Z"/><path class="cls-3" d="M1129.79,358.27c0-65.06-26.94-123.55-68.35-166.27-42.72-42.72-101.21-69.66-166.27-69.66A233,233,0,0,0,729.55,192c-38.82,40.06-64.93,94-68,154.2,3.32-.14,6.66-.23,10-.23,65.06,0,123.55,26.94,166.27,69.66,41.41,42.72,68.35,101.21,68.35,166.27q0,6.08-.31,12.06a231.67,231.67,0,0,0,155.59-69.42C1102.85,481.83,1129.79,423.34,1129.79,358.27Z"/><path class="cls-4" d="M837.81,415.63C795.09,372.91,736.6,346,671.54,346c-3.36,0-6.7.09-10,.23q-.32,6-.31,12.07a233.17,233.17,0,0,0,10,67.53,243.41,243.41,0,0,0,58.36,98.74,229.23,229.23,0,0,0,96.86,59.32,232.56,232.56,0,0,0,68.76,10.35c3.58,0,7.14-.1,10.68-.25q.31-6,.31-12.06C906.16,516.84,879.22,458.35,837.81,415.63Z"/><path class="cls-5" d="M1227.2,420.23H1124.68v391.7H1030V420.23H927.52V342.68H1227.2Z"/><path class="cls-5" d="M1362.58,342.68V522.1H1473V342.68h94.64V811.93H1473V603.59H1362.58V811.93H1268V342.68Z"/></svg>