<svg data-name="0kFlqj.tif" xmlns="http://www.w3.org/2000/svg" width="31.199" height="31.214"><g data-name="Group 20" fill="#fcf6ea"><path data-name="Path 17" d="M10.549 0H20.64a1.832 1.832 0 00.248.042 18.281 18.281 0 013.433.323 8 8 0 016.124 5.17 11.973 11.973 0 01.678 3.843c.016.394.05.788.076 1.182v10.087c-.015.083-.035.165-.042.248-.092 1.068-.108 2.149-.286 3.2a8.081 8.081 0 01-7.117 6.833 40.945 40.945 0 01-4.585.263c-2.807.034-5.616.008-8.423-.019a21.969 21.969 0 01-3.621-.277 8.187 8.187 0 01-6.779-6.6 22 22 0 01-.338-4.291c-.02-3.25 0-6.5.03-9.748A15.529 15.529 0 01.41 6.62 7.972 7.972 0 015.304.828 11.715 11.715 0 019.366.066C9.76.061 10.154.027 10.549 0zm5.047 2.78v.056c-1.413 0-2.826-.023-4.237.007-1.09.023-2.181.079-3.266.184a5.761 5.761 0 00-2.785.992 5.381 5.381 0 00-2.286 4.082 49.276 49.276 0 00-.205 4.278c-.027 2.479-.015 4.958.016 7.436.013 1.1.078 2.2.184 3.292a5.759 5.759 0 00.99 2.785 5.385 5.385 0 004.083 2.287c1.428.14 2.869.183 4.3.207 2.071.033 4.143.025 6.214 0q2.013-.023 4.023-.147a6.272 6.272 0 003.228-1.032 5.373 5.373 0 002.308-4.1c.14-1.43.193-2.87.2-4.306.022-2.65 0-5.3-.03-7.955a16.93 16.93 0 00-.264-3.335 5.233 5.233 0 00-3.54-4.161 8.24 8.24 0 00-2.525-.435c-2.13-.055-4.269-.091-6.411-.135z"/><path data-name="Path 18" d="M23.614 15.606a8.02 8.02 0 11-8.015-8.017 8.01 8.01 0 018.015 8.017zm-13.217 0a5.2 5.2 0 105.2-5.19 5.243 5.243 0 00-5.2 5.183z"/><path data-name="Path 19" d="M25.798 7.289a1.877 1.877 0 11-1.867-1.888 1.864 1.864 0 011.867 1.888z"/></g></svg>