<svg id="Laag_1" data-name="Laag 1" xmlns="http://www.w3.org/2000/svg" viewBox="0 0 1673.76 941.49"><defs><style>.cls-1{fill:#b83718}</style></defs><path class="cls-1" d="M371.64 680.48q0 74.92-34.83 106.8t-106.47 31.87q-37.47 0-61.45-10.18t-38.12-28.92q-14.13-18.74-19.38-43.7a253.75 253.75 0 01-5.26-52.58V663.4h86.75v14.46q0 37.46 8.21 55.53t33.85 18.07q25.63 0 33.85-18.07t8.21-55.53V342.68h94.64z"/><path d="M517.27 581.9a155.16 155.16 0 0045.56 110c27.94 28.5 66.82 46.1 108.73 46.1s81.4-17.62 110-46.17a156.06 156.06 0 0044.9-108 229.23 229.23 0 01-96.86-59.32 243.41 243.41 0 01-58.36-98.74A152.46 152.46 0 00562.83 472a155.14 155.14 0 00-45.56 109.9z" fill="none"/><path class="cls-1" d="M826.41 583.86a156.06 156.06 0 01-44.9 108C753 720.4 713.48 738 671.56 738s-80.79-17.62-108.73-46.17a155.44 155.44 0 010-219.89 152.46 152.46 0 01108.36-46.14 233.17 233.17 0 01-10-67.53q0-6.07.31-12.07a233.21 233.21 0 00-155.6 69.43c-41.4 42.72-68.34 101.21-68.34 166.27s26.94 123.56 68.34 166.28a232.49 232.49 0 00331.89 0c38.83-40.07 64.94-94 68-154.22-3.54.15-7.1.25-10.68.25a232.56 232.56 0 01-68.7-10.35z"/><path d="M1129.79 358.27c0-65.06-26.94-123.55-68.35-166.27-42.72-42.72-101.21-69.66-166.27-69.66A233 233 0 00729.55 192c-38.82 40.06-64.93 94-68 154.2 3.32-.14 6.66-.23 10-.23 65.06 0 123.55 26.94 166.27 69.66 41.41 42.72 68.35 101.21 68.35 166.27q0 6.08-.31 12.06a231.67 231.67 0 00155.59-69.42c41.4-42.71 68.34-101.2 68.34-166.27z" fill="#f6c76b"/><path d="M837.81 415.63C795.09 372.91 736.6 346 671.54 346c-3.36 0-6.7.09-10 .23q-.32 6-.31 12.07a233.17 233.17 0 0010 67.53 243.41 243.41 0 0058.36 98.74 229.23 229.23 0 0096.86 59.32 232.56 232.56 0 0068.76 10.35c3.58 0 7.14-.1 10.68-.25q.31-6 .31-12.06c-.04-65.09-26.98-123.58-68.39-166.3z" fill="#da7236"/><path d="M1227.2 420.23h-102.52v391.7H1030v-391.7H927.52v-77.55h299.68zm135.38-77.55V522.1H1473V342.68h94.64v469.25H1473V603.59h-110.42v208.34H1268V342.68z" fill="#e09f19"/></svg>