<svg xmlns="http://www.w3.org/2000/svg" width="19.812" height="33.713" viewBox="0 0 19.812 33.713">
  <g id="kSgHUv.tif" transform="translate(1.25 1.25)">
    <g id="Group_21" data-name="Group 21">
      <path id="Path_20" data-name="Path 20" d="M254.887,4320.085c0,1.077,0,2.061,0,3.042-.016,2.976-.049,5.951-.044,8.926,0,.535-.151.7-.69.686q-2.279-.053-4.561,0c-.512.011-.685-.148-.679-.657.016-1.413,0-2.828-.016-4.239-.029-2.4-.081-4.8-.092-7.2,0-.461-.167-.557-.583-.551-1.335.016-2.671-.02-4,0-.488.008-.686-.1-.663-.646.072-1.652.1-3.308.117-4.962,0-.391.166-.459.5-.455,1.335.013,2.67.006,4,.006h.638c.019-.3.044-.54.047-.777.013-1.507-.054-3.017.047-4.518.291-4.347,2.745-6.466,6.313-7a20.076,20.076,0,0,1,5.093-.1c.375.039.562.146.546.572-.06,1.5-.1,3.01-.124,4.515-.007.44-.19.552-.612.553a27.37,27.37,0,0,0-3.435.119,1.918,1.918,0,0,0-1.739,2.144c-.012,1.265-.038,2.529-.052,3.793,0,.217.023.435.043.761h5.729c-.105.85-.191,1.578-.288,2.305-.135,1.01-.3,2.017-.415,3.03-.054.458-.191.681-.719.667C257.846,4320.06,256.439,4320.085,254.887,4320.085Z" transform="translate(-243.55 -4301.526)" fill="none" stroke="#fcf6ea" stroke-miterlimit="10" stroke-width="2.5"/>
    </g>
  </g>
</svg>
