<svg id="_0kFlqj.tif" data-name="0kFlqj.tif" xmlns="http://www.w3.org/2000/svg" width="31.199" height="31.214" viewBox="0 0 31.199 31.214">
  <g id="Group_20" data-name="Group 20">
    <path id="Path_17" data-name="Path 17" d="M319.556,4307.153h10.091a1.832,1.832,0,0,0,.248.042,18.281,18.281,0,0,1,3.433.323,8,8,0,0,1,6.124,5.17,11.973,11.973,0,0,1,.678,3.843c.016.394.05.788.076,1.182V4327.8c-.015.083-.035.165-.042.248-.092,1.068-.108,2.149-.286,3.2a8.081,8.081,0,0,1-7.117,6.833,40.945,40.945,0,0,1-4.585.263c-2.807.034-5.616.008-8.423-.019a21.969,21.969,0,0,1-3.621-.277,8.187,8.187,0,0,1-6.779-6.6,22,22,0,0,1-.338-4.291c-.02-3.25,0-6.5.03-9.748a15.529,15.529,0,0,1,.372-3.636,7.972,7.972,0,0,1,4.894-5.792,11.715,11.715,0,0,1,4.062-.762C318.767,4307.214,319.161,4307.18,319.556,4307.153Zm5.047,2.78v.056c-1.413,0-2.826-.023-4.237.007-1.09.023-2.181.079-3.266.184a5.761,5.761,0,0,0-2.785.992,5.381,5.381,0,0,0-2.286,4.082c-.139,1.42-.19,2.852-.205,4.278-.027,2.479-.015,4.958.016,7.436.013,1.1.078,2.2.184,3.292a5.759,5.759,0,0,0,.99,2.785,5.385,5.385,0,0,0,4.083,2.287c1.428.14,2.869.183,4.3.207,2.071.033,4.143.025,6.214,0q2.013-.023,4.023-.147a6.272,6.272,0,0,0,3.228-1.032,5.373,5.373,0,0,0,2.308-4.1c.14-1.43.193-2.87.2-4.306.022-2.65,0-5.3-.03-7.955a16.93,16.93,0,0,0-.264-3.335,5.233,5.233,0,0,0-3.54-4.161,8.24,8.24,0,0,0-2.525-.435C328.881,4310.013,326.742,4309.977,324.6,4309.933Z" transform="translate(-309.007 -4307.153)" fill="#fcf6ea"/>
    <path id="Path_18" data-name="Path 18" d="M337.554,4327.7a8.02,8.02,0,1,1-8.015-8.017A8.01,8.01,0,0,1,337.554,4327.7Zm-13.217,0a5.2,5.2,0,1,0,5.2-5.19A5.243,5.243,0,0,0,324.337,4327.693Z" transform="translate(-313.94 -4312.094)" fill="#fcf6ea"/>
    <path id="Path_19" data-name="Path 19" d="M349.163,4317.96a1.877,1.877,0,1,1-1.867-1.888A1.864,1.864,0,0,1,349.163,4317.96Z" transform="translate(-323.365 -4310.671)" fill="#fcf6ea"/>
  </g>
</svg>
